<mxfile host="app.diagrams.net" modified="2023-11-13T18:06:58.019Z" agent="Mozilla/5.0 (Windows NT 10.0; Win64; x64) AppleWebKit/537.36 (KHTML, like Gecko) Chrome/119.0.0.0 Safari/537.36" etag="Q76JP1aRpKZX6m4jgx1J" version="22.1.0" type="device">
  <diagram name="Sida-1" id="IzwX1-zVILbkxM8ssK5G">
    <mxGraphModel dx="2314" dy="1142" grid="1" gridSize="10" guides="1" tooltips="1" connect="1" arrows="1" fold="1" page="1" pageScale="1" pageWidth="827" pageHeight="1169" math="0" shadow="0">
      <root>
        <mxCell id="0" />
        <mxCell id="1" parent="0" />
        <mxCell id="oDp4_KyAmL5wfV5meRoP-1" style="edgeStyle=orthogonalEdgeStyle;rounded=0;orthogonalLoop=1;jettySize=auto;html=1;entryX=-0.037;entryY=0.613;entryDx=0;entryDy=0;entryPerimeter=0;" edge="1" parent="1" source="3c-t1QPKF1sv-SVtVna1-1" target="3c-t1QPKF1sv-SVtVna1-2">
          <mxGeometry relative="1" as="geometry" />
        </mxCell>
        <mxCell id="3c-t1QPKF1sv-SVtVna1-1" value="" style="image;html=1;image=img/lib/clip_art/computers/Workstation_128x128.png" parent="1" vertex="1">
          <mxGeometry x="50" y="279" width="80" height="80" as="geometry" />
        </mxCell>
        <mxCell id="3c-t1QPKF1sv-SVtVna1-13" style="edgeStyle=orthogonalEdgeStyle;rounded=0;orthogonalLoop=1;jettySize=auto;html=1;exitX=1;exitY=0.75;exitDx=0;exitDy=0;" parent="1" source="3c-t1QPKF1sv-SVtVna1-2" target="3c-t1QPKF1sv-SVtVna1-7" edge="1">
          <mxGeometry relative="1" as="geometry" />
        </mxCell>
        <mxCell id="3c-t1QPKF1sv-SVtVna1-2" value="" style="image;html=1;image=img/lib/clip_art/computers/Server_Tower_128x128.png" parent="1" vertex="1">
          <mxGeometry x="210" y="270" width="80" height="80" as="geometry" />
        </mxCell>
        <mxCell id="3c-t1QPKF1sv-SVtVna1-3" value="" style="image;html=1;image=img/lib/clip_art/computers/Database_128x128.png" parent="1" vertex="1">
          <mxGeometry x="399" y="570" width="80" height="80" as="geometry" />
        </mxCell>
        <mxCell id="3c-t1QPKF1sv-SVtVna1-4" value="" style="image;html=1;image=img/lib/clip_art/general/Full_Folder_128x128.png" parent="1" vertex="1">
          <mxGeometry x="590" y="300" width="60" height="60" as="geometry" />
        </mxCell>
        <mxCell id="3c-t1QPKF1sv-SVtVna1-20" style="edgeStyle=orthogonalEdgeStyle;rounded=0;orthogonalLoop=1;jettySize=auto;html=1;exitX=0;exitY=0.5;exitDx=0;exitDy=0;entryX=0.5;entryY=0;entryDx=0;entryDy=0;" parent="1" source="3c-t1QPKF1sv-SVtVna1-6" target="3c-t1QPKF1sv-SVtVna1-19" edge="1">
          <mxGeometry relative="1" as="geometry">
            <mxPoint x="240" y="460" as="targetPoint" />
          </mxGeometry>
        </mxCell>
        <mxCell id="3c-t1QPKF1sv-SVtVna1-21" style="edgeStyle=orthogonalEdgeStyle;rounded=0;orthogonalLoop=1;jettySize=auto;html=1;entryX=0.5;entryY=0;entryDx=0;entryDy=0;" parent="1" source="3c-t1QPKF1sv-SVtVna1-6" target="3c-t1QPKF1sv-SVtVna1-18" edge="1">
          <mxGeometry relative="1" as="geometry">
            <mxPoint x="500" y="480" as="targetPoint" />
          </mxGeometry>
        </mxCell>
        <mxCell id="3c-t1QPKF1sv-SVtVna1-6" value="" style="image;html=1;image=img/lib/clip_art/finance/Credit_Card_128x128.png" parent="1" vertex="1">
          <mxGeometry x="414" y="430" width="50" height="60" as="geometry" />
        </mxCell>
        <mxCell id="3c-t1QPKF1sv-SVtVna1-14" style="edgeStyle=orthogonalEdgeStyle;rounded=0;orthogonalLoop=1;jettySize=auto;html=1;entryX=0;entryY=0.5;entryDx=0;entryDy=0;" parent="1" source="3c-t1QPKF1sv-SVtVna1-7" target="3c-t1QPKF1sv-SVtVna1-4" edge="1">
          <mxGeometry relative="1" as="geometry" />
        </mxCell>
        <mxCell id="3c-t1QPKF1sv-SVtVna1-16" style="edgeStyle=orthogonalEdgeStyle;rounded=0;orthogonalLoop=1;jettySize=auto;html=1;entryX=0.5;entryY=0;entryDx=0;entryDy=0;" parent="1" source="3c-t1QPKF1sv-SVtVna1-7" target="3c-t1QPKF1sv-SVtVna1-6" edge="1">
          <mxGeometry relative="1" as="geometry" />
        </mxCell>
        <mxCell id="3c-t1QPKF1sv-SVtVna1-7" value="" style="sketch=0;pointerEvents=1;shadow=0;dashed=0;html=1;strokeColor=none;fillColor=#505050;labelPosition=center;verticalLabelPosition=bottom;verticalAlign=top;outlineConnect=0;align=center;shape=mxgraph.office.users.credentials;" parent="1" vertex="1">
          <mxGeometry x="411" y="301" width="56" height="58" as="geometry" />
        </mxCell>
        <mxCell id="3c-t1QPKF1sv-SVtVna1-8" value="" style="endArrow=classic;startArrow=classic;html=1;rounded=0;entryX=0.5;entryY=1;entryDx=0;entryDy=0;exitX=-0.012;exitY=0.625;exitDx=0;exitDy=0;exitPerimeter=0;strokeColor=#FF6666;" parent="1" source="3c-t1QPKF1sv-SVtVna1-3" target="3c-t1QPKF1sv-SVtVna1-2" edge="1">
          <mxGeometry width="50" height="50" relative="1" as="geometry">
            <mxPoint x="120" y="750" as="sourcePoint" />
            <mxPoint x="118.51999999999995" y="357.99999999999994" as="targetPoint" />
            <Array as="points">
              <mxPoint x="250" y="620" />
            </Array>
          </mxGeometry>
        </mxCell>
        <mxCell id="3c-t1QPKF1sv-SVtVna1-11" value="" style="endArrow=classic;startArrow=classic;html=1;rounded=0;exitX=1.025;exitY=0.613;exitDx=0;exitDy=0;exitPerimeter=0;fillColor=#FF6666;strokeColor=#FF6666;" parent="1" source="3c-t1QPKF1sv-SVtVna1-3" target="3c-t1QPKF1sv-SVtVna1-4" edge="1">
          <mxGeometry width="50" height="50" relative="1" as="geometry">
            <mxPoint x="859" y="620" as="sourcePoint" />
            <mxPoint x="620" y="360" as="targetPoint" />
            <Array as="points">
              <mxPoint x="620" y="620" />
            </Array>
          </mxGeometry>
        </mxCell>
        <mxCell id="3c-t1QPKF1sv-SVtVna1-23" style="edgeStyle=orthogonalEdgeStyle;rounded=0;orthogonalLoop=1;jettySize=auto;html=1;entryX=0.5;entryY=0;entryDx=0;entryDy=0;strokeColor=#FF6666;" parent="1" source="3c-t1QPKF1sv-SVtVna1-18" target="3c-t1QPKF1sv-SVtVna1-3" edge="1">
          <mxGeometry relative="1" as="geometry" />
        </mxCell>
        <mxCell id="3c-t1QPKF1sv-SVtVna1-18" value="add payment&lt;br&gt;service e.g&amp;nbsp;&lt;br&gt;credit card" style="ellipse;whiteSpace=wrap;html=1;" parent="1" vertex="1">
          <mxGeometry x="500" y="490" width="120" height="60" as="geometry" />
        </mxCell>
        <mxCell id="3c-t1QPKF1sv-SVtVna1-22" style="edgeStyle=orthogonalEdgeStyle;rounded=0;orthogonalLoop=1;jettySize=auto;html=1;exitX=1;exitY=0.5;exitDx=0;exitDy=0;entryX=0.5;entryY=0;entryDx=0;entryDy=0;strokeColor=#FF6666;" parent="1" source="3c-t1QPKF1sv-SVtVna1-19" target="3c-t1QPKF1sv-SVtVna1-3" edge="1">
          <mxGeometry relative="1" as="geometry" />
        </mxCell>
        <mxCell id="3c-t1QPKF1sv-SVtVna1-19" value="add payment&lt;br&gt;service e.g&amp;nbsp;&lt;br&gt;credit card" style="ellipse;whiteSpace=wrap;html=1;" parent="1" vertex="1">
          <mxGeometry x="250" y="490" width="120" height="60" as="geometry" />
        </mxCell>
        <mxCell id="3c-t1QPKF1sv-SVtVna1-24" value="database" style="text;html=1;align=center;verticalAlign=middle;resizable=0;points=[];autosize=1;strokeColor=none;fillColor=none;" parent="1" vertex="1">
          <mxGeometry x="404" y="650" width="70" height="30" as="geometry" />
        </mxCell>
        <mxCell id="3c-t1QPKF1sv-SVtVna1-25" value="login" style="text;html=1;align=center;verticalAlign=middle;resizable=0;points=[];autosize=1;strokeColor=none;fillColor=none;" parent="1" vertex="1">
          <mxGeometry x="240" y="250" width="50" height="30" as="geometry" />
        </mxCell>
        <mxCell id="3c-t1QPKF1sv-SVtVna1-26" value="http request" style="text;html=1;align=center;verticalAlign=middle;resizable=0;points=[];autosize=1;strokeColor=none;fillColor=none;" parent="1" vertex="1">
          <mxGeometry x="120" y="279" width="90" height="30" as="geometry" />
        </mxCell>
        <mxCell id="3c-t1QPKF1sv-SVtVna1-27" value="customer interface" style="text;html=1;align=center;verticalAlign=middle;resizable=0;points=[];autosize=1;strokeColor=none;fillColor=none;" parent="1" vertex="1">
          <mxGeometry x="30" y="230" width="120" height="30" as="geometry" />
        </mxCell>
        <mxCell id="3c-t1QPKF1sv-SVtVna1-28" value="display&amp;nbsp;&lt;br&gt;customer&lt;br&gt;info" style="text;html=1;align=center;verticalAlign=middle;resizable=0;points=[];autosize=1;strokeColor=none;fillColor=none;" parent="1" vertex="1">
          <mxGeometry x="430" y="270" width="70" height="60" as="geometry" />
        </mxCell>
        <mxCell id="3c-t1QPKF1sv-SVtVna1-29" value="rental history" style="text;html=1;align=center;verticalAlign=middle;resizable=0;points=[];autosize=1;strokeColor=none;fillColor=none;" parent="1" vertex="1">
          <mxGeometry x="640" y="285" width="90" height="30" as="geometry" />
        </mxCell>
        <mxCell id="3c-t1QPKF1sv-SVtVna1-30" value="customer&lt;br&gt;information" style="text;html=1;align=center;verticalAlign=middle;resizable=0;points=[];autosize=1;strokeColor=none;fillColor=none;" parent="1" vertex="1">
          <mxGeometry x="170" y="420" width="80" height="40" as="geometry" />
        </mxCell>
        <mxCell id="3c-t1QPKF1sv-SVtVna1-31" value="rental&lt;br&gt;information" style="text;html=1;align=center;verticalAlign=middle;resizable=0;points=[];autosize=1;strokeColor=none;fillColor=none;" parent="1" vertex="1">
          <mxGeometry x="620" y="470" width="80" height="40" as="geometry" />
        </mxCell>
        <mxCell id="3c-t1QPKF1sv-SVtVna1-32" value="payment options" style="text;html=1;align=center;verticalAlign=middle;resizable=0;points=[];autosize=1;strokeColor=none;fillColor=none;" parent="1" vertex="1">
          <mxGeometry x="384" y="480" width="110" height="30" as="geometry" />
        </mxCell>
      </root>
    </mxGraphModel>
  </diagram>
</mxfile>
